<svg xmlns:mydata="http://www.w3.org/2000/svg" mydata:contrastcolor="ffffff" mydata:template="Default"
    mydata:presentation="2.5" mydata:layouttype="undefined" mydata:specialfontid="undefined" mydata:id1="678"
    mydata:id2="436" mydata:companyname="MedicalAI" mydata:companytagline="" version="1.1"
    xmlns="http://www.w3.org/2000/svg" xmlns:xlink="http://www.w3.org/1999/xlink" style="height: 387px;"
    viewBox="0 0 550 470">
    <g fill="#3d3935" fill-rule="none" stroke="none" stroke-width="1" stroke-linecap="butt" stroke-linejoin="miter"
        stroke-miterlimit="10" stroke-dasharray="" stroke-dashoffset="0" font-family="none" font-weight="none"
        font-size="none" text-anchor="none" style="mix-blend-mode: normal">
        <g
            data-paper-data="{&quot;isGlobalGroup&quot;:true,&quot;bounds&quot;:{&quot;x&quot;:65,&quot;y&quot;:201.36558720249707,&quot;width&quot;:420,&quot;height&quot;:67.26882559500586}}">
            <g data-paper-data="{&quot;isPrimaryText&quot;:true}" id="element-id-99007">
                <path
                    d="M75.73352,205.54428l31.79087,63.09013l-12.7819,-33.92119l17.37027,-18.51736l5.98127,46.70308l7.70191,-0.08194l-10.97932,-57.27273l-20.07413,29.16894l-10.32384,-29.08701zM107.52439,268.63441l-33.83925,-54.97854l-8.68513,49.16114l8.68513,0.08194l2.7858,-36.78892z"
                    data-paper-data="{&quot;glyphName&quot;:&quot;M&quot;,&quot;glyphIndex&quot;:0,&quot;firstGlyphOfWord&quot;:true,&quot;word&quot;:1}"
                    fill-rule="nonzero" id="element-id-78788"></path>
                <path
                    d="M157.75068,205.38041h21.95864v6.80062h-8.84901h-12.20835c-3.76902,0 -6.71869,0.32774 -8.93094,1.06516c-2.13032,0.73742 -3.85096,1.72064 -5.16192,2.94967c-0.81935,0.90129 -1.55677,1.88451 -2.29419,2.94967c-0.73742,1.14709 -1.47483,2.37612 -2.04838,3.76902c-0.57355,1.3929 -1.06516,2.62193 -1.47483,3.60515c-0.40968,1.06516 -0.81935,2.37612 -1.3929,4.09676c-0.57355,1.72064 -1.06516,2.94967 -1.31096,3.60515c-1.22903,3.35934 -2.04838,6.55482 -2.29419,9.42255c-0.08194,0.98322 -0.16387,1.88451 -0.16387,2.70386c0,1.06516 0.08194,2.04838 0.24581,2.94967c-0.24581,-0.40968 -0.40968,-0.81935 -0.49161,-1.22903c-1.55677,-4.01483 -2.29419,-8.52126 -2.29419,-13.68318c0,-4.34257 0.49161,-8.19352 1.55677,-11.55287c0.98322,-3.35934 2.29419,-6.14514 3.85096,-8.35739c1.55677,-2.21225 3.35934,-4.01483 5.24385,-5.24385c1.88451,-1.22903 4.1787,-2.21225 6.88256,-2.86773c2.70386,-0.65548 5.73547,-0.98322 9.17675,-0.98322zM141.2817,224.38939h28.43153v0.32774c0,2.86773 -1.31096,4.83418 -3.93289,5.98127c-2.7858,1.22903 -7.37417,1.80258 -13.76512,1.80258c-0.08194,0 -0.49161,0 -1.31096,-0.08194h-1.55677c-0.24581,0.08194 -0.81935,0.08194 -1.55677,0.16387c-0.73742,0.08194 -1.31096,0.16387 -1.6387,0.24581c-0.32774,0.16387 -0.73742,0.32774 -1.31096,0.57355c-0.57355,0.24581 -1.06516,0.57355 -1.31096,0.90129c-0.24581,0.40968 -0.49161,0.81935 -0.73742,1.3929c-0.24581,0.57355 -0.40968,1.14709 -0.49161,1.88451c-0.08194,0.57355 -0.16387,1.55677 -0.32774,2.94967c-0.24581,1.3929 -0.32774,2.53999 -0.40968,3.35934c-0.08194,0.24581 -0.08194,0.57355 -0.08194,0.90129c0,0.65548 0.08194,1.3929 0.16387,2.13032c0.16387,1.22903 0.57355,2.29419 1.14709,3.11354c0.57355,0.90129 1.47483,1.72064 2.7858,2.62193c1.22903,0.90129 2.86773,1.6387 4.75224,2.21225c2.62193,0.73742 5.89934,1.14709 9.83223,1.14709h12.04448h7.70191v6.80062h-19.82833c-4.50644,0 -7.86578,-0.24581 -10.2419,-0.81935c-3.27741,-0.73742 -6.06321,-2.13032 -8.43933,-4.09676c-1.14709,-0.98322 -2.04838,-1.80258 -2.70386,-2.45806c-0.73742,-0.65548 -1.3929,-1.55677 -2.13032,-2.70386c-0.73742,-1.06516 -1.22903,-2.21225 -1.3929,-3.35934c-0.08194,-0.90129 -0.16387,-1.72064 -0.24581,-2.62193v-0.73742c0,-0.65548 0,-1.31096 0.08194,-2.04838c0.16387,-0.98322 0.32774,-1.88451 0.40968,-2.62193c0.08194,-0.73742 0.32774,-1.6387 0.65548,-2.7858c0.32774,-1.14709 0.57355,-2.04838 0.81935,-2.70386c0.16387,-0.57355 0.49161,-1.55677 1.06516,-2.86773c0.49161,-1.31096 0.81935,-2.21225 1.06516,-2.70386c0.16387,-0.49161 0.57355,-1.47483 1.22903,-3.0316c0.57355,-1.47483 0.98322,-2.45806 1.14709,-2.86773z"
                    data-paper-data="{&quot;glyphName&quot;:&quot;E&quot;,&quot;glyphIndex&quot;:1,&quot;word&quot;:1}"
                    fill-rule="nonzero" id="element-id-45314"></path>
                <path
                    d="M189.04994,205.46235h19.82833c4.50644,0 7.86578,0.24581 10.2419,0.81935c3.27741,0.73742 6.06321,2.13032 8.35739,4.09676c1.22903,1.06516 2.13032,1.88451 2.7858,2.45806c0.65548,0.65548 1.3929,1.55677 2.13032,2.70386c0.73742,1.14709 1.14709,2.29419 1.3929,3.35934c0.08194,0.90129 0.16387,1.80258 0.16387,2.7858c0,1.55677 -0.16387,3.11354 -0.49161,4.83418c-0.49161,2.7858 -1.06516,5.07998 -1.72064,6.96449c-0.73742,1.88451 -1.80258,4.50644 -3.27741,8.02965c-0.40968,1.06516 -0.73742,1.80258 -0.98322,2.37612c0.81935,-2.86773 1.22903,-6.30901 1.22903,-10.15997c0,-5.98127 -0.98322,-10.56964 -2.94967,-13.76512c-1.96645,-3.27741 -4.34257,-5.48966 -7.2103,-6.55482c-2.04838,-0.73742 -5.32579,-1.14709 -9.83223,-1.14709h-12.04448l7.2103,21.13929l13.10964,-3.85096l-11.47093,11.22513h-7.61998l-8.84901,-28.51346zM234.93367,218.98166l0.49161,1.22903c1.55677,4.01483 2.29419,8.52126 2.29419,13.68318c0,4.34257 -0.49161,8.19352 -1.47483,11.55287c-1.06516,3.35934 -2.37612,6.22708 -4.01483,8.43933c-1.55677,2.21225 -3.35934,3.93289 -5.24385,5.16192c-1.88451,1.22903 -4.09676,2.21225 -6.80062,2.86773c-2.70386,0.65548 -5.73547,0.98322 -9.25868,0.98322h-25.97347v-6.80062h12.86383h12.29028c3.76902,0 6.71869,-0.32774 8.84901,-1.06516c2.21225,-0.73742 3.93289,-1.72064 5.16192,-2.94967c3.52321,-4.58837 6.47288,-9.9961 8.68513,-16.14124c1.6387,-4.50644 2.45806,-8.68513 2.45806,-12.69996c0,-1.47483 -0.08194,-2.86773 -0.32774,-4.26063z"
                    data-paper-data="{&quot;glyphName&quot;:&quot;D&quot;,&quot;glyphIndex&quot;:2,&quot;word&quot;:1}"
                    fill-rule="nonzero" id="element-id-19354"></path>
                <path
                    d="M242.96332,205.46235h9.50449v45.96567l-3.68709,-33.67538l-5.8174,10.97932zM247.22396,225.94616l3.93289,36.87085h-8.19352v-28.8412z"
                    data-paper-data="{&quot;glyphName&quot;:&quot;I&quot;,&quot;glyphIndex&quot;:3,&quot;word&quot;:1}"
                    fill-rule="nonzero" id="element-id-58612"></path>
                <path
                    d="M333.74756,201.36559l-10.81545,61.45142l12.37222,-13.68318l-0.08194,13.68318l13.27351,-21.95864l7.78385,-12.86383l3.68709,-6.14514l-4.34257,4.83418l-9.42255,10.48771l-10.89739,11.96254l0.24581,-39.16504l12.61803,23.26961c1.22903,-1.3929 2.21225,-2.53999 3.11354,-3.44128zM331.45337,205.46235l-19.00897,57.35466h8.6032zM353.90363,234.05774c-0.98322,1.6387 -1.96645,3.35934 -3.0316,5.07998l11.47093,23.67928h9.25868z"
                    data-paper-data="{&quot;glyphName&quot;:&quot;A&quot;,&quot;glyphIndex&quot;:5,&quot;word&quot;:1}"
                    fill-rule="nonzero" id="element-id-51339"></path>
                <path
                    d="M378.07452,205.46235h8.19352v28.8412l-4.1787,8.02965zM376.84549,216.85135l3.60515,33.67538l5.8174,-10.97932v13.84705h19.58252v9.42255h-19.58252h-9.42255v-9.42255z"
                    data-paper-data="{&quot;glyphName&quot;:&quot;L&quot;,&quot;glyphIndex&quot;:6,&quot;word&quot;:1}"
                    fill-rule="nonzero" id="element-id-30645"></path>
                <path
                    d="M432.39758,201.36559l-10.81545,61.45142l12.37222,-13.68318l-0.08194,13.68318l13.27351,-21.95864l7.78385,-12.86383l3.68709,-6.14514l-4.34257,4.83418l-9.42255,10.48771l-10.89739,11.96254l0.24581,-39.16504l12.61803,23.26961c1.22903,-1.3929 2.21225,-2.53999 3.11354,-3.44128zM430.10339,205.46235l-19.00897,57.35466h8.6032zM452.55365,234.05774c-0.98322,1.6387 -1.96645,3.35934 -3.0316,5.07998l11.47093,23.67928h9.25868z"
                    data-paper-data="{&quot;glyphName&quot;:&quot;A&quot;,&quot;glyphIndex&quot;:7,&quot;word&quot;:1}"
                    fill-rule="nonzero" id="element-id-56274"></path>
                <path
                    d="M475.49551,205.46235h9.50449v45.96567l-3.68709,-33.67538l-5.8174,10.97932zM479.75615,225.94616l3.93289,36.87085h-8.19352v-28.8412z"
                    data-paper-data="{&quot;glyphName&quot;:&quot;I&quot;,&quot;glyphIndex&quot;:8,&quot;lastGlyphOfWord&quot;:true,&quot;word&quot;:1}"
                    fill-rule="nonzero" id="element-id-89088"></path>
                <g data-paper-data="{&quot;fillRule&quot;:&quot;evenodd&quot;,&quot;fillRuleOriginal&quot;:&quot;evenodd&quot;,&quot;isIcon&quot;:true,&quot;iconStyle&quot;:&quot;icon-in-text&quot;,&quot;selectedEffects&quot;:{&quot;container&quot;:&quot;&quot;,&quot;transformation&quot;:&quot;&quot;,&quot;pattern&quot;:&quot;&quot;},&quot;bounds&quot;:{&quot;x&quot;:257.7116660163871,&quot;y&quot;:205.54428404213812,&quot;width&quot;:49.48888021849393,&quot;height&quot;:57.108856808427646},&quot;iconType&quot;:&quot;icon&quot;,&quot;rawIconId&quot;:&quot;39539&quot;,&quot;isDetailed&quot;:false,&quot;suitableAsStandaloneIcon&quot;:true}"
                    id="element-id-4065">
                    <path
                        d="M283.27546,205.54428c3.27741,0 6.47288,0.65548 9.50449,2.04838c3.0316,1.3929 5.65353,3.27741 8.02965,5.8174c-2.94967,-2.70386 -6.30901,-4.58837 -9.9961,-5.48966c-1.72064,-0.40968 -3.44128,-0.65548 -5.16192,-0.65548h-0.57355c-3.60515,0.08194 -7.04643,0.90129 -10.40577,2.62193c-3.35934,1.72064 -5.98127,4.01483 -8.02965,6.88256c-2.29419,3.0316 -3.76902,6.47288 -4.50644,10.32384c-0.32774,1.6387 -0.49161,3.27741 -0.49161,4.83418c0,2.13032 0.24581,4.1787 0.81935,6.22708c0.73742,3.11354 2.13032,5.98127 4.09676,8.6032c1.88451,2.70386 4.26063,4.83418 7.12837,6.55482c3.52321,2.04838 6.88256,3.0316 10.15997,3.0316c3.52321,0 6.88256,-1.14709 10.15997,-3.52321c2.37612,-2.04838 4.1787,-4.91611 5.24385,-8.6032h7.94772c-1.96645,5.65353 -4.91611,10.07803 -8.76707,13.43738c-3.85096,3.35934 -8.76707,4.99805 -14.74834,4.99805c-3.35934,0 -6.63675,-0.73742 -9.83223,-2.21225c-3.19547,-1.3929 -5.89934,-3.35934 -8.27546,-5.89934c-2.37612,-2.45806 -4.34257,-5.48966 -5.73547,-9.09481c-1.3929,-3.52321 -2.13032,-7.29224 -2.13032,-11.30706c0.08194,-5.16192 1.22903,-9.9961 3.52321,-14.33867c2.21225,-4.34257 5.32579,-7.86578 9.25868,-10.40577c3.93289,-2.53999 8.19352,-3.85096 12.7819,-3.85096zM285.48771,208.41202h0.32774h0.32774c2.53999,0 5.16192,0.57355 8.02965,1.80258c2.94967,1.22903 5.5716,3.11354 7.94772,5.5716c2.29419,2.53999 3.68709,5.24385 4.09676,8.19352h-7.04643c-1.88451,-6.06321 -6.55482,-9.25868 -13.92899,-9.66836h-0.49161c-4.50644,0 -8.43933,1.31096 -11.96254,4.01483c-3.68709,2.7858 -5.8174,6.47288 -6.30901,11.06126c-0.08194,0.90129 -0.16387,1.80258 -0.16387,2.70386c0,3.0316 0.57355,6.06321 1.72064,8.93094c1.47483,3.68709 3.68709,6.71869 6.63675,8.93094c2.94967,2.29419 6.14514,3.44128 9.66836,3.44128c1.55677,0 2.94967,-0.16387 4.1787,-0.49161c1.22903,-0.24581 2.37612,-0.73742 3.44128,-1.3929c1.06516,-0.65548 1.96645,-1.3929 2.7858,-2.13032c0.73742,-0.73742 1.55677,-1.55677 2.37612,-2.62193c-1.22903,2.45806 -2.94967,4.4245 -5.16192,5.89934c-2.29419,1.47483 -4.91611,2.29419 -7.86578,2.45806h-0.81935c-1.22903,0 -2.45806,-0.16387 -3.85096,-0.57355c-3.44128,-0.98322 -6.47288,-2.7858 -9.17675,-5.32579c-2.70386,-2.53999 -4.67031,-5.48966 -5.89934,-8.84901c-0.98322,-2.70386 -1.47483,-5.40773 -1.47483,-8.27546c0,-1.06516 0.08194,-2.13032 0.16387,-3.19547c0.49161,-4.01483 1.80258,-7.53804 4.01483,-10.73352c1.55677,-2.29419 3.52321,-4.26063 5.89934,-5.89934c2.37612,-1.55677 4.83418,-2.70386 7.53804,-3.27741c1.6387,-0.40968 3.27741,-0.57355 4.99805,-0.57355z"
                        data-paper-data="{&quot;glyphName&quot;:&quot;C&quot;,&quot;glyphIndex&quot;:4,&quot;word&quot;:1}"
                        fill-rule="nonzero" id="element-id-33765"></path>
                    <path
                        d="M282.87338,232.09317c0.65674,0.38069 1.73079,0.38069 2.38753,-0.0004l11.99801,-6.96259c0.65674,-0.38109 0.65594,-1.00322 -0.00161,-1.3831l-11.9948,-6.92557c-0.65714,-0.37948 -1.7328,-0.37948 -2.39035,0l-11.99842,6.92758c-0.65755,0.37948 -0.65795,1.00161 -0.00121,1.3827zM285.77882,232.98935c-0.65674,0.38109 -1.19397,1.31389 -1.19397,2.07284v13.8946c0,0.75936 0.53803,1.06962 1.19558,0.69014l12.03182,-6.9469c0.65755,-0.37948 1.19558,-1.31107 1.19558,-2.07043v-13.93766c0,-0.75895 -0.53723,-1.06841 -1.19397,-0.68733zM283.54984,235.06219c0,-0.75936 -0.53723,-1.69175 -1.19397,-2.07284l-12.03544,-6.98191c-0.65674,-0.38109 -1.19397,-0.07163 -1.19397,0.68733v13.93484c0,0.75936 0.53763,1.69055 1.19517,2.07043l12.03262,6.9469c0.65755,0.37948 1.19517,0.06922 1.19517,-0.69014v-13.8946z"
                        data-paper-data="{&quot;isPathIcon&quot;:true}" fill-rule="evenodd" id="element-id-4854"></path>
                </g>
            </g>
        </g>
    </g>

    <rect data-element-id="element-id-99007" stroke-width="2" fill="transparent"
        class="invisible-element-box grouping-element" x="65" y="201" width="420" height="67"
        data-element-name="isPrimaryText"></rect>
    <rect data-element-id="element-id-78788" stroke-width="2" fill="transparent"
        class="invisible-element-box individual-element" x="65" y="206" width="61" height="63"></rect>
    <rect data-element-id="element-id-51339" stroke-width="2" fill="transparent"
        class="invisible-element-box individual-element" x="312" y="201" width="59" height="62"></rect>
    <rect data-element-id="element-id-56274" stroke-width="2" fill="transparent"
        class="invisible-element-box individual-element" x="411" y="201" width="59" height="62"></rect>
    <rect data-element-id="element-id-19354" stroke-width="2" fill="transparent"
        class="invisible-element-box individual-element" x="185" y="205" width="53" height="57"></rect>
    <rect data-element-id="element-id-4065" stroke-width="2" fill="transparent"
        class="invisible-element-box grouping-element" x="258" y="206" width="50" height="57"
        data-element-name="isIcon"></rect>
    <rect data-element-id="element-id-33765" stroke-width="2" fill="transparent"
        class="invisible-element-box individual-element" x="258" y="206" width="50" height="57"></rect>
    <rect data-element-id="element-id-45314" stroke-width="2" fill="transparent"
        class="invisible-element-box individual-element" x="131" y="205" width="49" height="57"></rect>
    <rect data-element-id="element-id-30645" stroke-width="2" fill="transparent"
        class="invisible-element-box individual-element" x="377" y="205" width="29" height="57"></rect>
    <rect data-element-id="element-id-4854" stroke-width="2" fill="transparent"
        class="invisible-element-box individual-element" x="269" y="217" width="30" height="33"></rect>
    <rect data-element-id="element-id-58612" stroke-width="2" fill="transparent"
        class="invisible-element-box individual-element" x="243" y="205" width="10" height="57"></rect>
    <rect data-element-id="element-id-89088" stroke-width="2" fill="transparent"
        class="invisible-element-box individual-element" x="475" y="205" width="10" height="57"></rect>
</svg>