<?xml version="1.0" encoding="utf-8"?>
<!-- Uploaded to: SVG Repo, www.svgrepo.com, Generator: SVG Repo Mixer Tools -->
<svg width="800px" height="800px" viewBox="-16.1 0 248.752 248.752" xmlns="http://www.w3.org/2000/svg"><defs><style>.a{fill:#f8b8b4;}.b{fill:#a98a75;}.c{fill:#ffffff;}.d{fill:#211715;}.e{fill:#a0a0a0;}</style></defs><path class="a" d="M2.412,246.418a202.339,202.339,0,0,1,7.2-21.064c2.8-5.868,6.228-11.676,11.172-15.792a77.146,77.146,0,0,1,17.136-11.124c5.95-2.58,13.373-5.4,20.1-8.166,13.311,8.466,31.683,14.266,50.838,14.266,19.25,0,37.361-5.708,50.578-14.058,6.587,2.693,13.791,5.442,19.594,7.958a77.146,77.146,0,0,1,17.136,11.124c4.944,4.116,8.376,9.924,11.172,15.792,1.368,2.844,4.968,14.1,6.8,20.8Z"/><path class="b" d="M47.752,193.95C33.9,193.614,25,183.21,25.072,173.6a116.79,116.79,0,0,1,3.552-24.8c2.748-9.84,4.724-27.156,4.724-51.168C32.172,62.2,41.488,36.509,56.179,22.444c8.856-8.478,28.812-20.029,51.234-20.029a81.4,81.4,0,0,1,32.546,6.234l4.568,1.852,5.444,3.209c4.338,2.556,5.886,4.747,10.35,9.054,11.211,10.816,19,30.276,20.243,47.7.358,5.027,1.181,18.107.388,27.16.4,29.915,5.914,46.659,8.76,54.9a54.764,54.764,0,0,1,3.458,18.741c.1,11.2-13.815,25.7-29.814,19.958Z"/><path class="c" d="M149.519,195.816a99.163,99.163,0,0,1-40.658,8.722A97.941,97.941,0,0,1,60.1,191.556l-1.74-1.354c5.194-1.869,15.046-5.5,16.312-6.149a9.469,9.469,0,0,0,6.024-8.659c.211-3.286.308-5.547.639-8.524a52.685,52.685,0,0,1-15.009-12.894,66.991,66.991,0,0,1-12.713-23.984,9.532,9.532,0,0,1-8.1-2.031c-4.685-3.833-6.628-9.178-7.814-12.673-1.675-4.934-1.781-12.908.715-17.236.836-1.45,2.778-3.919,7.344-4.08a8.957,8.957,0,0,1,5.593,1.682l7.439-6.263c4.664-3.816,9.486-8.047,14.315-12.465,8.567-.149,17.927-.208,17.927-.208,16.668-4.761,30.086-14.508,40.652-28.257,2.072,7.963,5,17.878,7.569,22.7,3.776,7.08,15.791,22.958,25.471,25.284a8.693,8.693,0,0,1,6.486-2.473c4.566.161,6.508,2.63,7.344,4.08,2.5,4.328,2.39,12.3.715,17.236-1.186,3.5-3.13,8.84-7.814,12.673a9.707,9.707,0,0,1-7.488,2.161l-.719-.121a56.816,56.816,0,0,1-2.576,6.993c-1.87,5.076-12.055,22.652-25.033,29.971.324,2.932.422,5.179.631,8.429a9.468,9.468,0,0,0,6.024,8.659c1.336.688,12.243,4.694,17.129,6.442A83.134,83.134,0,0,1,149.519,195.816Z"/><path class="d" d="M4.726,247.056c1.41-5.11,3.1-10.153,4.888-15.141.361-1,.727-2,1.108-3q.216-.564.439-1.126c.079-.2.159-.393.239-.59.179-.437-.177.355.109-.248a72.43,72.43,0,0,1,4.161-7.721C22.408,208.6,34.326,202.374,45.662,197.8c6.858-2.765,13.775-5.4,20.521-8.43a2.418,2.418,0,0,0,.861-3.284,2.46,2.46,0,0,0-3.284-.861c-6.108,2.746-12.371,5.132-18.583,7.628-6.1,2.45-12.059,4.985-17.573,8.611-5.553,3.653-10.813,7.816-14.688,13.267A60.285,60.285,0,0,0,5.71,228.657C3.615,234.278,1.693,240,.1,245.78c-.823,2.982,3.806,4.254,4.628,1.276Z"/><path class="d" d="M216.459,245.513c-2.78-10.1-5.671-20.566-11.48-29.4-3.667-5.58-8.569-9.749-14.007-13.543a86.28,86.28,0,0,0-17.226-8.916c-6.858-2.783-13.8-5.386-20.549-8.421a2.475,2.475,0,0,0-3.284.861,2.419,2.419,0,0,0,.861,3.284c5.964,2.68,12.064,5.046,18.133,7.472,5.882,2.35,11.663,4.72,17.032,8.126,5.058,3.209,10.168,6.96,13.716,11.849a57.164,57.164,0,0,1,4.7,7.875q.5.992.974,1.994c.068.143.129.289.193.433-.218-.5-.071-.166-.028-.057q.544,1.374,1.035,2.768c1.979,5.576,3.733,11.25,5.3,16.955.819,2.974,5.451,1.712,4.628-1.276Z"/><path class="d" d="M140.6,6.335A86.422,86.422,0,0,0,104.77.068,81.777,81.777,0,0,0,68.532,10.654,63.859,63.859,0,0,0,47.649,28.648c-5.857,8.015-9.794,17.385-12.387,26.926-3.708,13.648-4.768,27.957-4.318,42.052.1,3.081,4.9,3.095,4.8,0C35.053,76,37.74,52.6,49.756,34.035a56.35,56.35,0,0,1,17.906-17.3A78.282,78.282,0,0,1,100.424,5.182a81.546,81.546,0,0,1,38.9,5.781,2.416,2.416,0,0,0,2.953-1.676A2.459,2.459,0,0,0,140.6,6.335Z"/><path class="d" d="M183.352,97.626a146.553,146.553,0,0,0,.091-18.966,130.624,130.624,0,0,0-1.538-16.676c-2.282-13.049-7.486-26.065-15.821-36.441a102.727,102.727,0,0,0-7.348-7.744,38.391,38.391,0,0,0-7.553-6.162c-2.659-1.587-5.076,2.561-2.423,4.145a32.043,32.043,0,0,1,6.327,5.154c2.166,2.181,4.434,4.278,6.443,6.607a64.134,64.134,0,0,1,9.532,15.4,84.191,84.191,0,0,1,5.844,18.334,107.231,107.231,0,0,1,1.654,15.657,152.92,152.92,0,0,1-.008,20.688,2.42,2.42,0,0,0,2.4,2.4,2.448,2.448,0,0,0,2.4-2.4Z"/><path class="d" d="M47.752,191.55c-6.6-.207-13.244-3.074-17.115-8.589a17.231,17.231,0,0,1-3.074-7.554,46.632,46.632,0,0,1,.488-10.169c.428-3.825,1.034-7.635,1.828-11.4.578-2.737,1.383-5.415,1.986-8.145A149.514,149.514,0,0,0,34.553,127.1c.9-9.8,1.193-19.642,1.2-29.475,0-3.089-4.8-3.094-4.8,0-.005,9.162-.268,18.333-1.024,27.466a145.789,145.789,0,0,1-2.639,19.085c-.613,2.812-1.444,5.567-2.038,8.384-.857,4.06-1.483,8.172-1.957,12.293a48.488,48.488,0,0,0-.516,10.692,21.225,21.225,0,0,0,3.289,9.206c4.769,7.349,13.054,11.327,21.685,11.6,3.089.1,3.086-4.7,0-4.8Z"/><path class="d" d="M178.552,97.626c.228,15.914,1.84,31.976,6.226,47.321,1.634,5.714,3.939,11.248,5.1,17.089.756,3.8,1.371,8.543.6,12.027a19.393,19.393,0,0,1-4.225,8.315,21.992,21.992,0,0,1-9.393,6.661,19.225,19.225,0,0,1-12.865-.129,2.4,2.4,0,0,0-1.276,4.629A24.386,24.386,0,0,0,186.5,188.89a26.357,26.357,0,0,0,6.916-8.82,22.473,22.473,0,0,0,2.1-11.082,58.317,58.317,0,0,0-2.818-15.111c-.744-2.318-1.574-4.607-2.3-6.931a141.331,141.331,0,0,1-4.26-17.571,197.861,197.861,0,0,1-2.776-31.749c-.044-3.086-4.844-3.095-4.8,0Z"/><path class="d" d="M53.818,94.606a11.94,11.94,0,0,0-13.253-1.792c-3.157,1.56-4.962,4.687-5.774,8.008-1.957,8.007.079,17.138,4.657,23.93,3.278,4.862,8.054,8.551,14.185,7.685a2.416,2.416,0,0,0,1.676-2.953,2.464,2.464,0,0,0-2.952-1.676c-3.587.507-6.676-2.483-8.55-5.167a30.478,30.478,0,0,1-3.9-8.284,24.732,24.732,0,0,1-.9-9.935,14.718,14.718,0,0,1,1.054-4.36,9.935,9.935,0,0,1,.733-1.307c.277-.437-.117.085.166-.233.2-.228.407-.45.629-.659,2.121-2,6.452-2.036,8.832.137,2.277,2.08,5.681-1.305,3.394-3.394Z"/><path class="d" d="M166.532,98a7.023,7.023,0,0,1,8.308-.551,6.306,6.306,0,0,1,1.009.909c.1.1.19.217.279.328-.019-.024-.222-.3-.076-.086.132.2.263.39.383.594a12.273,12.273,0,0,1,1.352,4.091c1.111,6.177-.605,12.8-3.823,18.1-1.9,3.133-5.249,7-9.365,6.42a2.481,2.481,0,0,0-2.952,1.676,2.417,2.417,0,0,0,1.676,2.953c10.012,1.415,15.857-8.759,18.4-16.955a29.2,29.2,0,0,0,.755-13.125c-.563-3.479-2.024-6.843-4.989-8.9a11.857,11.857,0,0,0-14.348,1.15c-2.286,2.088,1.116,5.475,3.394,3.394Z"/><path class="d" d="M161.992,125.226a72.589,72.589,0,0,1-3.863,11.7c.294-.758-.034.067-.1.22-.1.224-.206.447-.312.669q-.43.9-.9,1.779c-.694,1.309-1.435,2.594-2.207,3.859a70.331,70.331,0,0,1-15.265,18.09A28.242,28.242,0,0,1,128,167.418c-3.01.691-1.736,5.32,1.276,4.629,8.491-1.949,15.547-8.186,21.081-14.626a76.283,76.283,0,0,0,11.813-17.853c.186-.41.363-.826.535-1.242.05-.124.316-.773.178-.448-.184.432.13-.276.133-.283.154-.348.3-.7.447-1.054q.358-.861.685-1.737a55.627,55.627,0,0,0,2.471-8.3,2.459,2.459,0,0,0-1.676-2.952,2.423,2.423,0,0,0-2.952,1.676Z"/><path class="d" d="M50.174,126.3a70.112,70.112,0,0,0,9.963,23.385c5.061,7.579,11.7,14.68,19.741,19.123a38.966,38.966,0,0,0,13.187,4.477,2.479,2.479,0,0,0,2.952-1.676,2.418,2.418,0,0,0-1.676-2.952c-16.833-2.471-29.433-17.089-35.825-32.029a67.262,67.262,0,0,1-3.714-11.6c-.681-3.012-5.309-1.738-4.628,1.276Z"/><path class="d" d="M100.675,145.381c.414-.218.83-.428,1.254-.625.072-.034.5-.208.156-.07-.367.146.175-.064.2-.072.306-.11.612-.218.923-.314a17.672,17.672,0,0,1,5.514-.759,17.018,17.018,0,0,1,5.567.726c.355.11.7.236,1.047.375-.527-.212.193.1.364.192.214.113.425.232.629.361s.875.635.18.094a2.48,2.48,0,0,0,3.394,0,2.416,2.416,0,0,0,0-3.395c-3.074-2.4-7-3.128-10.826-3.153a22.477,22.477,0,0,0-10.821,2.5,2.4,2.4,0,1,0,2.422,4.144Z"/><path class="d" d="M108.07,117.723a51.812,51.812,0,0,1,1.221,5.588l-.085-.638a3.371,3.371,0,0,1,.02.771l.086-.638a1.8,1.8,0,0,1-.085.347l.242-.573a1.38,1.38,0,0,1-.122.223l.375-.486a1.147,1.147,0,0,1-.182.18l.485-.375a3.521,3.521,0,0,1-.442.234l.573-.242a3.24,3.24,0,0,1-.746.218l.638-.086a2.98,2.98,0,0,1-.7,0l.638.086c-.264-.037-.523-.1-.788-.137a2.655,2.655,0,0,0-1.849.242,2.4,2.4,0,0,0-.861,3.284,2.3,2.3,0,0,0,1.434,1.1c.56.075,1.1.219,1.672.244a5.258,5.258,0,0,0,2.411-.566,3.377,3.377,0,0,0,1.9-2.24,5.8,5.8,0,0,0-.026-2.464c-.3-1.8-.721-3.585-1.184-5.35a2.4,2.4,0,1,0-4.628,1.276Z"/><path class="d" d="M78.258,102.114c-.9,2.939-.315,9.7,5.252,10.273,7.357-.044,7.749-8.216,5.272-12.059C86.754,97.182,80.791,95.874,78.258,102.114Z"/><path class="d" d="M138.7,102.114c.9,2.939.315,9.7-5.252,10.273-7.357-.044-7.749-8.216-5.273-12.059C130.2,97.182,136.164,95.874,138.7,102.114Z"/><path class="d" d="M129.539,49.786c1.253,4.746,2.59,9.477,4.177,14.123a53.171,53.171,0,0,0,4.462,10.228,77.5,77.5,0,0,0,14.49,17.734c3.131,2.805,6.633,5.411,10.686,6.69,2.952.933,4.216-3.7,1.276-4.628a24.239,24.239,0,0,1-8.057-5,69.2,69.2,0,0,1-8.077-8.491,55.654,55.654,0,0,1-9.763-16.687c-1.767-5-3.212-10.115-4.565-15.241-.788-2.984-5.42-1.718-4.629,1.276Z"/><path class="d" d="M89.8,57.7c-10.554,10.363-21.271,20.614-32.717,30a2.417,2.417,0,0,0,0,3.394,2.455,2.455,0,0,0,3.394,0c11.446-9.382,22.163-19.633,32.717-30,2.208-2.167-1.187-5.561-3.394-3.394Z"/><path class="d" d="M129.928,46.832A81.88,81.88,0,0,1,112.4,63.911,73.791,73.791,0,0,1,90.388,74.4c-2.963.854-1.7,5.487,1.276,4.628a79.19,79.19,0,0,0,34.027-20.1,90.437,90.437,0,0,0,7.631-8.708,2.48,2.48,0,0,0,0-3.394,2.416,2.416,0,0,0-3.394,0Z"/><path class="d" d="M56.316,193.468c4.283-1.481,8.533-3.069,12.777-4.658,4.538-1.7,9.906-3.125,12.416-7.673,2.089-3.786,1.679-8.408,2.053-12.583a2.419,2.419,0,0,0-2.4-2.4,2.45,2.45,0,0,0-2.4,2.4c-.168,1.88-.279,3.765-.395,5.649a11.653,11.653,0,0,1-.711,3.935,6.611,6.611,0,0,1-2.519,2.98,15.649,15.649,0,0,1-1.767.906c-.076.035-.153.067-.229.1-.414.2.529-.21.031-.012-4.1,1.631-8.246,3.151-12.392,4.663-1.91.7-3.819,1.4-5.74,2.061-2.9,1-1.654,5.642,1.276,4.628Z"/><path class="d" d="M161.915,188.84c-3.978-1.376-7.925-2.849-11.869-4.32-1.93-.72-3.863-1.437-5.774-2.206-.142-.056-.283-.115-.425-.172-.461-.184.048.021.06.027-.312-.146-.631-.278-.943-.425a7.161,7.161,0,0,1-3.04-2.474,8.4,8.4,0,0,1-1.276-4.12c-.149-2.2-.258-4.4-.454-6.6a2.465,2.465,0,0,0-2.4-2.4,2.417,2.417,0,0,0-2.4,2.4c.331,3.7.006,7.787,1.446,11.276a11.947,11.947,0,0,0,6.507,6.423c4.256,1.861,8.679,3.374,13.04,4.967,2.08.759,4.159,1.524,6.252,2.248,2.926,1.012,4.183-3.623,1.276-4.628Z"/><path class="d" d="M58.885,193.628c24.377,14.341,55.029,17.038,81.778,8.211a91.391,91.391,0,0,0,19.96-9.269c2.61-1.639.2-5.794-2.423-4.145-22.725,14.266-51.742,17.231-77.259,9.562a89.4,89.4,0,0,1-19.634-8.5c-2.668-1.57-5.086,2.577-2.422,4.144Z"/><path class="c" d="M54.219,144.891c.27-4.825.463-9.321.874-14.927.089-1.208.2-3.593-.532-4.559-1.5-1.984-4.752-2.452-6.519-.661a11.153,11.153,0,0,0-2.915,6.441c-1.857,11.623-3.779,27.221-3.583,38.088.04,6.064,3.364,11.613,5.622,16.385,1.629,3.442,3.627,5.832,4.123,9.607a19.144,19.144,0,0,1-.722,7.727,56.827,56.827,0,0,1-3.338,8.374l-5.3,11.414-.223.48a142.56,142.56,0,0,0,30.492,5.133,32.091,32.091,0,0,0,3.721-12.151c.2-2.061.221-4.21,1.132-6.07a22.756,22.756,0,0,1,2.256-3.226c4.47-6.137,4.763-18.734,4.318-26.4.174-3.457,1.554-7.539,2.851-10.924,1.71-4.464,3.818-9.394,5.469-14.418a3.681,3.681,0,0,0-.761-3.289,5.088,5.088,0,0,0-2.684-1.38,5.184,5.184,0,0,0-3.808.613l-1.293.816c1.217-2.117,2.429-4.216,3.66-6.314a9.175,9.175,0,0,0,1.1-6.8,4.31,4.31,0,0,0-2.3-2.5,7.6,7.6,0,0,0-6.461.128s-.449.225-1.161.592a8.221,8.221,0,0,0,.919-3.61,4.807,4.807,0,0,0-2.84-4.637,5.29,5.29,0,0,0-4.333.55,16.231,16.231,0,0,0-4.605,4.512,244.276,244.276,0,0,0-13.839,20.986C53.845,151.164,54.048,147.961,54.219,144.891Z"/><path class="d" d="M43.944,169.285C43.778,158.969,45,148.6,46.45,138.4c.347-2.447.648-4.922,1.129-7.348.3-1.539,1.03-4.414,2.729-4.944a2.281,2.281,0,0,1,1.981.39c.534.411.461.941.467,1.793.02,2.573-.309,5.169-.458,7.737-.359,6.218-.636,12.439-1.147,18.647a2.42,2.42,0,0,0,2.4,2.4,2.448,2.448,0,0,0,2.4-2.4c.505-6.138.782-12.287,1.135-18.435.167-2.9.661-5.916.437-8.816a6.292,6.292,0,0,0-4.7-5.918c-3.068-.884-5.794.446-7.619,2.906-1.669,2.25-2.207,4.921-2.628,7.627-.923,5.929-1.722,11.88-2.347,17.847a161.518,161.518,0,0,0-1.087,19.4c.049,3.085,4.85,3.095,4.8,0Z"/><path class="d" d="M54.087,158.636c2.665-4.516,5.4-8.993,8.271-13.381q2.157-3.294,4.428-6.512a48.364,48.364,0,0,1,4.135-5.414c1-1.055,2.521-2.572,4.119-2.365s1.885,2.17,1.607,3.47c-.466,2.178-2.092,4.094-3.265,5.933q-2.115,3.32-4.2,6.658C66,152.1,62.85,157.2,59.628,162.254c-1.666,2.613,2.487,5.023,4.145,2.423,3.263-5.119,6.458-10.283,9.679-15.428q2.327-3.715,4.683-7.412c1.522-2.376,3.071-4.676,3.366-7.558a7.576,7.576,0,0,0-2.813-6.843,7.2,7.2,0,0,0-7.641-.3,17.581,17.581,0,0,0-5.26,4.9c-1.733,2.256-3.38,4.579-4.986,6.926-3.837,5.609-7.405,11.4-10.859,17.251-1.573,2.666,2.574,5.084,4.145,2.422Z"/><path class="d" d="M80.606,138.55a5.219,5.219,0,0,1,3.783-.217,2.1,2.1,0,0,1,1.579,2.066c.231,3.227-2.22,6.147-3.751,8.8-3.576,6.2-7.106,12.436-10.822,18.558-1.607,2.648,2.543,5.063,4.145,2.423,4.455-7.341,8.637-14.842,12.966-22.257,2.017-3.456,3.689-8.517.7-11.976-2.733-3.169-7.5-3.181-11.028-1.544a2.42,2.42,0,0,0-.861,3.284,2.456,2.456,0,0,0,3.284.861Z"/><path class="d" d="M81.221,180.547c.4,7.032.37,14.584-1.992,21.3-1.282,3.647-4.513,6.167-5.23,10.031-.424,2.283-.413,4.614-.87,6.893a30.414,30.414,0,0,1-2.194,6.8,2.47,2.47,0,0,0,.861,3.284A2.42,2.42,0,0,0,75.08,228a36.263,36.263,0,0,0,3.211-11.528,18.275,18.275,0,0,1,.751-4.9c.617-1.544,1.935-2.73,2.813-4.12,3.166-5.009,3.891-11.513,4.2-17.3a87.22,87.22,0,0,0-.037-9.607c-.173-3.071-4.974-3.091-4.8,0Z"/><path class="d" d="M39.143,169.291a28.273,28.273,0,0,0,2.637,10.656c1.34,3.1,2.85,6.2,4.477,9.167a28.127,28.127,0,0,1,2.092,4.18,12.97,12.97,0,0,1,.621,5.339c-.275,3.659-1.822,7.189-3.334,10.485-1.908,4.159-3.855,8.3-5.783,12.45a2.47,2.47,0,0,0,.861,3.284A2.419,2.419,0,0,0,44,223.991q2.652-5.708,5.305-11.414c1.682-3.625,3.419-7.342,4.126-11.3A18.531,18.531,0,0,0,52.148,190c-1.442-3.142-3.212-6.159-4.733-9.268-1.762-3.6-3.388-7.371-3.472-11.439-.063-3.084-4.863-3.095-4.8,0Z"/><path class="d" d="M85.9,153.222c1.239-.7,3.912-.525,3.727,1.345a11.155,11.155,0,0,1-.779,2.276q-.4,1.131-.824,2.255c-.554,1.479-1.131,2.949-1.712,4.417C84.14,169,81.6,174.58,81.221,180.547c-.194,3.085,4.607,3.074,4.8,0a34.75,34.75,0,0,1,2.616-9.893c1.3-3.441,2.724-6.835,4.015-10.28,1.229-3.278,3.08-7.133.225-10.155a7.924,7.924,0,0,0-9.4-1.142c-2.686,1.525-.27,5.674,2.423,4.145Z"/><path class="d" d="M33.806,223.008a82.988,82.988,0,0,0,15.5,4.633,144.394,144.394,0,0,0,20.085,2.987,69.3,69.3,0,0,0,10.045.1l-2.314-3.038c-1.658,6-3.345,11.992-4.959,18-.8,2.986,3.826,4.261,4.628,1.276,1.615-6.011,3.3-12,4.959-18a2.419,2.419,0,0,0-2.314-3.038,84.578,84.578,0,0,1-17.9-.945,142.564,142.564,0,0,1-18.186-3.751c-1.376-.384-2.744-.794-4.1-1.248-.592-.2-1.181-.405-1.766-.624-.285-.107-.569-.218-.853-.33-.1-.04-.2-.082-.3-.123-.367-.15.5.218-.1-.042a2.479,2.479,0,0,0-3.284.861,2.417,2.417,0,0,0,.861,3.283Z"/><path class="e" d="M90.24,115.79a15.025,15.025,0,0,1-3.233,1.614c-2.059.394-4.987-1.89-6.381.564-1.162,2.677,1.373,5.171,3.338,6.06a7.778,7.778,0,0,0,6,.069,6.008,6.008,0,0,0,3.239-2.8C94.827,118.568,93.362,114.182,90.24,115.79Z"/><path class="e" d="M131.782,116.766a22.948,22.948,0,0,0,4.452.513c2.6-.275,5.222-3.366,7.8-1.476,2.389,2.175.2,6.115-1.805,7.578a9.226,9.226,0,0,1-6.407,1.62c-1.942-.15-4.1-.355-5.657-1.524C127.216,121.4,127.462,116.224,131.782,116.766Z"/><path class="e" d="M127.606,139.628c.191.207.375.418.558.631.136.158.16.2.017.008q.127.168.249.339a14.47,14.47,0,0,1,.943,1.517c.134.246.26.5.379.751.02.042.2.442.093.194s.062.156.078.2a14.93,14.93,0,0,1,.546,1.7,14.474,14.474,0,0,1,.328,1.651c-.031-.227-.03-.256-.01-.011.011.14.026.279.036.419.019.28.032.56.035.841.009.6-.045,1.187-.084,1.784-.023.369.071-.377,0-.013-.026.138-.045.277-.071.414-.057.311-.127.619-.2.925a2.4,2.4,0,0,0,4.629,1.276A17.494,17.494,0,0,0,131,136.234a2.421,2.421,0,0,0-3.4,0,2.452,2.452,0,0,0,0,3.394Z"/></svg>